<svg width="2255" height="1767" xmlns="http://www.w3.org/2000/svg" style="background: transparent; background-color: white; color-scheme: light dark;" xmlns:xlink="http://www.w3.org/1999/xlink" xml:space="preserve" overflow="hidden"><g transform="translate(-228 -595)"><rect x="1925.5" y="1500.5" width="65.0004" height="65" stroke="#7D1E7D" stroke-width="4.58333" stroke-miterlimit="8" fill="#7D1E7D"/><rect x="1204.5" y="2197.5" width="65" height="65" stroke="#7D1E7D" stroke-width="4.58333" stroke-miterlimit="8" fill="#7D1E7D"/><rect x="946.5" y="2197.5" width="65.0003" height="65" stroke="#848B8E" stroke-width="4.58333" stroke-miterlimit="8" fill="#848B8E"/><rect x="498.5" y="1295.5" width="64.9999" height="65" stroke="#848B8E" stroke-width="4.58333" stroke-miterlimit="8" fill="#848B8E"/><rect x="240.5" y="765.5" width="581" height="527" stroke="#343739" stroke-width="4.58333" stroke-miterlimit="8" fill="none"/><text fill="#B70032" font-family="Verdana,Verdana_MSFontService,sans-serif" font-weight="400" font-size="41" transform="matrix(1 0 0 1 253.346 832)">&gt;</text><text font-family="Verdana,Verdana_MSFontService,sans-serif" font-weight="400" font-size="55" transform="matrix(1 0 0 1 319.346 832)">Compressor</text><text fill="#B70032" font-family="Verdana,Verdana_MSFontService,sans-serif" font-weight="400" font-size="41" transform="matrix(1 0 0 1 253.346 907)">&gt;</text><text font-family="Verdana,Verdana_MSFontService,sans-serif" font-weight="400" font-size="55" transform="matrix(1 0 0 1 319.346 907)">Ventilators</text><text fill="#B70032" font-family="Verdana,Verdana_MSFontService,sans-serif" font-weight="400" font-size="41" transform="matrix(1 0 0 1 253.346 982)">&gt;</text><text font-family="Verdana,Verdana_MSFontService,sans-serif" font-weight="400" font-size="55" transform="matrix(1 0 0 1 319.346 982)">Solenoid valves</text><rect x="240.5" y="597.5" width="581" height="168" stroke="#343739" stroke-width="4.58333" stroke-miterlimit="8" fill="none"/><text font-family="Verdana,Verdana_MSFontService,sans-serif" font-weight="400" font-size="64" transform="matrix(1 0 0 1 368.008 706)">HVAC unit</text><rect x="1668.5" y="975.5" width="580" height="527" stroke="#343739" stroke-width="4.58333" stroke-miterlimit="8" fill="none"/><text fill="#B70032" font-family="Verdana,Verdana_MSFontService,sans-serif" font-weight="400" font-size="41" transform="matrix(1 0 0 1 1680.6 1043)">&gt;</text><text font-family="Verdana,Verdana_MSFontService,sans-serif" font-weight="400" font-size="55" transform="matrix(1 0 0 1 1746.6 1043)">Application logic</text><text fill="#B70032" font-family="Verdana,Verdana_MSFontService,sans-serif" font-weight="400" font-size="41" transform="matrix(1 0 0 1 1680.6 1118)">&gt;</text><text font-family="Verdana,Verdana_MSFontService,sans-serif" font-weight="400" font-size="55" transform="matrix(1 0 0 1 1746.6 1118)">µP and POSIX</text><text font-family="Verdana,Verdana_MSFontService,sans-serif" font-weight="400" font-size="55" transform="matrix(1 0 0 1 2130.02 1118)">-</text><text font-family="Verdana,Verdana_MSFontService,sans-serif" font-weight="400" font-size="55" transform="matrix(1 0 0 1 1812.6 1184)">based system</text><rect x="1668.5" y="807.5" width="581" height="168" stroke="#343739" stroke-width="4.58333" stroke-miterlimit="8" fill="none"/><text font-family="Verdana,Verdana_MSFontService,sans-serif" font-weight="400" font-size="64" transform="matrix(1 0 0 1 1892.29 917)">HPC</text><rect x="821.5" y="1670.5" width="580" height="527" stroke="#343739" stroke-width="4.58333" stroke-miterlimit="8" fill="none"/><text fill="#B70032" font-family="Verdana,Verdana_MSFontService,sans-serif" font-weight="400" font-size="41" transform="matrix(1 0 0 1 833.688 1738)">&gt;</text><text font-family="Verdana,Verdana_MSFontService,sans-serif" font-weight="400" font-size="55" transform="matrix(1 0 0 1 899.688 1738)">Signal to Service</text><text fill="#B70032" font-family="Verdana,Verdana_MSFontService,sans-serif" font-weight="400" font-size="41" transform="matrix(1 0 0 1 833.688 1813)">&gt;</text><text font-family="Verdana,Verdana_MSFontService,sans-serif" font-weight="400" font-size="55" transform="matrix(1 0 0 1 899.688 1813)">µC</text><text font-family="Verdana,Verdana_MSFontService,sans-serif" font-weight="400" font-size="55" transform="matrix(1 0 0 1 972.242 1813)">-</text><text font-family="Verdana,Verdana_MSFontService,sans-serif" font-weight="400" font-size="55" transform="matrix(1 0 0 1 997.45 1813)">based system</text><rect x="821.5" y="1502.5" width="581" height="168" stroke="#343739" stroke-width="4.58333" stroke-miterlimit="8" fill="none"/><text font-family="Verdana,Verdana_MSFontService,sans-serif" font-weight="400" font-size="64" transform="matrix(1 0 0 1 1022.26 1611)">Zonal</text><path d="M0 0 983.939 0 983.939 448.13 901.439 448.13" stroke="#848B8E" stroke-width="6.875" stroke-miterlimit="8" fill="none" fill-rule="evenodd" transform="matrix(1.83697e-16 1 1 -1.83697e-16 531.5 1360.5)"/><path d="M1236.5 2262.17 1236.5 2344.67 1957.93 2344.67 1957.93 1565.5" stroke="#7D1E7D" stroke-width="6.875" stroke-miterlimit="8" fill="none" fill-rule="evenodd"/><text font-family="Verdana,Verdana_MSFontService,sans-serif" font-weight="400" font-size="64" transform="matrix(1 0 0 1 638.574 2310)">Signals</text><text font-family="Verdana,Verdana_MSFontService,sans-serif" font-weight="400" font-size="64" transform="matrix(1 0 0 1 1461.53 2308)">Services</text><path d="M1418 1153C1418 879.619 1655.29 658 1948 658 2240.71 658 2478 879.619 2478 1153 2478 1426.38 2240.71 1648 1948 1648 1655.29 1648 1418 1426.38 1418 1153Z" stroke="#B70032" stroke-width="10.3125" stroke-miterlimit="8" fill="none" fill-rule="evenodd"/></g></svg>
